<svg width="100%" height="100%" fill="none" xmlns="http://www.w3.org/2000/svg" viewBox="0 0 24 24"><path d="M15 15h1.5v7.5H15V15ZM3 17.25h1.5v5.25H3v-5.25Z" fill="#202020"></path><path d="M12 22.5h-1.5v-3a.75.75 0 0 0-.75-.75h-1.5v3.75h-1.5v-5.25h3A2.252 2.252 0 0 1 12 19.5v3Zm-6.375-6A2.628 2.628 0 0 1 3 13.875V12.75H1.5v-1.5h3v2.625a1.125 1.125 0 0 0 2.25 0V11.25h3v1.5h-1.5v1.125A2.628 2.628 0 0 1 5.625 16.5Zm14.625-9h-4.235a2.24 2.24 0 0 0-2.089 1.415l-1.082 2.703-2.705 3.383 1.172.937 2.775-3.47 1.233-2.996A.747.747 0 0 1 16.015 9h4.235a.75.75 0 0 1 .75.75V15h-2.25v7.5h1.5v-6H21a1.502 1.502 0 0 0 1.5-1.5V9.75a2.252 2.252 0 0 0-2.25-2.25ZM18 6.75a3 3 0 1 1 0-6 3 3 0 0 1 0 6Zm0-4.5a1.5 1.5 0 1 0 0 3 1.5 1.5 0 0 0 0-3Z" fill="#202020"></path></svg>