<svg width="100%" height="100%" fill="none" xmlns="http://www.w3.org/2000/svg" viewBox="0 0 146 20"><g clip-path="url(#mobile_logo_svg__a)"><path fill-rule="evenodd" clip-rule="evenodd" d="M16.843.433c1.288 0 2.405.202 3.352.606.966.385 1.695.923 2.187 1.616.511.674.767 1.453.767 2.338 0 .5-.066.962-.199 1.385-.549 1.943-2.13 3.175-4.743 3.694.909.27 1.628.722 2.158 1.357.53.615.796 1.385.796 2.308 0 .424-.076.924-.228 1.501-.416 1.5-1.259 2.617-2.527 3.348-1.25.712-3.03 1.068-5.34 1.068H1.25c-.398 0-.7-.068-.91-.202-.226-.135-.34-.318-.34-.549 0-.115.028-.24.085-.375a.966.966 0 0 1 .37-.49c.17-.116.274-.183.312-.203.303-.192.549-.384.738-.577.19-.211.35-.548.483-1.01L5.453 3.81c.076-.25.114-.491.114-.722 0-.212-.038-.385-.114-.52a3.276 3.276 0 0 0-.255-.519c-.17-.25-.256-.452-.256-.606 0-.058.02-.164.057-.317a.773.773 0 0 1 .483-.52c.265-.115.663-.173 1.193-.173h10.168Zm-1.278 5.281c.133-.423.199-.817.199-1.183 0-1-.559-1.5-1.676-1.5H12.81l-1.505 5.396h1.25c.795 0 1.42-.192 1.874-.577.473-.404.852-1.116 1.136-2.136ZM13.492 14.2a4.63 4.63 0 0 0 .198-1.27c0-1.039-.586-1.558-1.76-1.558h-1.42l-1.62 5.685h1.449c.814 0 1.467-.202 1.96-.606.492-.423.89-1.173 1.193-2.25Zm25.654 2.05c-.076.25-.114.5-.114.75 0 .211.029.394.086.548.056.135.113.25.17.346a.823.823 0 0 1 .142.173c.19.193.284.385.284.578 0 .038-.019.134-.057.288a.859.859 0 0 1-.51.577c-.247.097-.635.145-1.165.145H31.25c-.398 0-.71-.068-.937-.202-.209-.135-.313-.318-.313-.549 0-.115.029-.24.085-.375a.783.783 0 0 1 .228-.346c.113-.096.265-.202.454-.318.303-.173.55-.365.739-.577.189-.211.35-.558.482-1.039l.739-2.482h-4.431l-.767 1.645c-.322.712-.483 1.27-.483 1.674 0 .231.038.423.114.577.076.135.19.28.34.433.133.154.218.289.256.404.057.097.067.231.029.404-.076.289-.237.49-.483.606-.227.097-.597.145-1.108.145h-4.232c-.436 0-.767-.077-.994-.231a.8.8 0 0 1-.341-.664c0-.308.114-.548.34-.721.21-.193.531-.395.967-.607.568-.288 1.022-.567 1.363-.837.34-.288.634-.683.88-1.183l5.056-10.65c.777-1.654 1.686-2.847 2.727-3.578C33.02.433 34.412.058 36.135.058c1.932 0 3.428.404 4.488 1.212 1.06.789 1.59 1.895 1.59 3.319 0 .596-.094 1.212-.283 1.847l-2.784 9.812ZM33.58 10.88l1.505-5.08c.076-.23.114-.47.114-.72 0-.366-.104-.636-.312-.809-.19-.192-.464-.288-.824-.288-.455 0-.843.134-1.165.404-.322.27-.643.75-.965 1.443l-2.33 5.05h3.977Zm29.745-4.589c-.302 1.116-.87 1.992-1.704 2.627-.833.615-1.884 1-3.152 1.154.908.077 1.59.347 2.044.808.455.462.682 1.068.682 1.818 0 .289-.047.645-.142 1.068l-.312 1.414a2.47 2.47 0 0 0-.057.404c0 .25.057.443.17.578.114.115.275.173.483.173.398 0 .682.057.852.173.19.115.256.327.2.635-.077.442-.304.875-.682 1.299-.38.423-.919.779-1.62 1.067-.681.27-1.514.404-2.499.404-1.25 0-2.244-.279-2.982-.837-.739-.577-1.108-1.394-1.108-2.453 0-.404.057-.837.17-1.298l.455-1.847c.075-.25.113-.51.113-.78 0-.442-.151-.76-.454-.952-.284-.192-.748-.289-1.392-.289h-1.08l-1.306 4.791c-.038.116-.057.26-.057.433 0 .27.067.5.2.693.132.192.312.394.539.606.17.134.303.27.398.404a.58.58 0 0 1 .142.375c0 .327-.152.558-.455.693-.303.134-.748.202-1.335.202h-7.13c-.492 0-.86-.087-1.107-.26-.246-.192-.331-.452-.256-.78a.709.709 0 0 1 .228-.403 1.99 1.99 0 0 1 .454-.375c.322-.193.578-.395.767-.607.19-.211.34-.538.455-.98l3.465-12.44c.075-.25.113-.49.113-.721 0-.212-.038-.385-.113-.52a3.275 3.275 0 0 0-.256-.519c-.17-.25-.255-.452-.255-.606 0-.058.018-.164.056-.317a.773.773 0 0 1 .483-.52c.265-.115.663-.173 1.193-.173h9.515c1.307 0 2.443.202 3.409.606.984.404 1.732.962 2.244 1.674a3.79 3.79 0 0 1 .795 2.366c0 .404-.057.808-.17 1.212Zm-7.27-.288c.094-.443.141-.78.141-1.01 0-1.02-.549-1.53-1.647-1.53h-1.193l-1.25 5.108h1.193c.738 0 1.316-.182 1.733-.548.435-.365.776-1.039 1.022-2.02ZM81.695.433c.7 0 1.24.154 1.619.462.397.307.596.73.596 1.27 0 .269-.038.529-.114.779l-.738 2.684c-.133.5-.35.856-.653 1.068-.303.211-.7.317-1.193.317-.474 0-.852-.096-1.136-.289-.284-.211-.493-.548-.625-1.01l-.455-1.645c-.076-.288-.17-.48-.284-.577-.113-.096-.35-.144-.71-.144h-2.84l-1.59 5.714h.539c.265 0 .492-.038.681-.115.209-.077.427-.222.654-.433l.88-.75c.322-.29.606-.491.852-.607.266-.134.54-.202.824-.202.36 0 .653.106.88.318.247.211.37.51.37.894 0 .154-.028.337-.085.549l-1.25 4.386c-.284.943-.795 1.415-1.534 1.415-.606 0-1.08-.318-1.42-.953l-.511-.981c-.133-.27-.256-.443-.37-.52-.113-.077-.284-.115-.51-.115h-.824l-1.194 4.3c-.037.116-.056.27-.056.462 0 .27.056.49.17.664.133.173.322.356.568.548.209.173.35.317.426.433a.589.589 0 0 1 .114.375c0 .346-.152.587-.455.722-.303.134-.748.202-1.335.202h-7.129c-.492 0-.861-.087-1.108-.26-.246-.192-.331-.452-.255-.78a.709.709 0 0 1 .227-.403c.095-.116.246-.24.454-.375.322-.193.578-.395.767-.607.19-.211.341-.538.455-.98l3.493-12.44c.076-.25.114-.48.114-.692 0-.231-.038-.423-.114-.577a1.915 1.915 0 0 0-.284-.49c-.17-.251-.255-.453-.255-.607 0-.058.019-.164.057-.317.075-.25.246-.424.51-.52.266-.115.654-.173 1.165-.173h12.612Zm12.727 0c2.84 0 4.98.558 6.419 1.674 1.439 1.096 2.159 2.713 2.159 4.848 0 1.058-.189 2.28-.568 3.665-.625 2.232-1.468 4.002-2.528 5.31-1.06 1.31-2.462 2.261-4.204 2.858-1.723.596-3.938.885-6.646.866l-7.726-.03c-.398 0-.7-.066-.909-.201-.227-.135-.34-.318-.34-.548 0-.116.028-.241.085-.376a.695.695 0 0 1 .255-.375c.095-.077.246-.183.455-.317.302-.173.54-.366.71-.578.189-.211.35-.548.483-1.01l3.465-12.41c.076-.25.113-.49.113-.721 0-.212-.037-.385-.113-.52a3.285 3.285 0 0 0-.256-.519c-.17-.25-.255-.452-.255-.606 0-.058.018-.164.056-.317a.773.773 0 0 1 .483-.52c.265-.115.663-.173 1.193-.173h7.67Zm.739 9.553c.492-1.809.738-3.233.738-4.272 0-1.02-.208-1.722-.625-2.107-.416-.384-1.013-.577-1.79-.577h-.624l-3.835 14.026h.682c.871 0 1.6-.183 2.187-.548.606-.385 1.165-1.077 1.676-2.078.511-1.02 1.041-2.501 1.59-4.444ZM116.59 0c2.386 0 4.251.577 5.595 1.732 1.345 1.135 2.017 2.78 2.017 4.935 0 1.02-.151 2.116-.454 3.29-.568 2.155-1.449 3.982-2.642 5.483-1.193 1.5-2.613 2.636-4.26 3.406-1.648.77-3.437 1.154-5.369 1.154-2.367 0-4.222-.568-5.567-1.703-1.344-1.154-2.016-2.809-2.016-4.964 0-.98.161-2.106.482-3.376.55-2.136 1.411-3.944 2.585-5.426 1.193-1.5 2.604-2.626 4.232-3.377C112.842.384 114.641 0 116.591 0Zm-.511 2.828c-.568 0-1.08.231-1.534.693-.455.462-.909 1.222-1.363 2.28-.436 1.039-.909 2.491-1.421 4.358-.757 2.693-1.136 4.55-1.136 5.57 0 .596.104 1.03.313 1.298.208.27.539.404.994.404.568 0 1.079-.23 1.534-.692.454-.481.899-1.241 1.335-2.28.435-1.04.918-2.473 1.448-4.3.739-2.655 1.108-4.522 1.108-5.6 0-.615-.104-1.057-.313-1.327-.208-.269-.53-.404-.965-.404Zm15.917 16.999c-1.269 0-2.424-.28-3.465-.837-1.023-.577-1.837-1.414-2.443-2.51-.606-1.117-.909-2.444-.909-3.984 0-1.173.199-2.482.597-3.925.871-3.078 2.234-5.252 4.09-6.522C131.741.78 133.739.144 135.86.144c1.931 0 3.673.712 5.226 2.136l.852-.837c.474-.404.881-.683 1.222-.837.34-.154.738-.23 1.193-.23.492 0 .89.124 1.193.374.303.231.454.549.454.953 0 .154-.028.336-.085.548l-1.023 3.636c-.189.616-.416 1.049-.681 1.3-.247.25-.587.374-1.023.374a2.21 2.21 0 0 1-1.221-.346c-.341-.23-.739-.645-1.193-1.241-.606-.808-1.146-1.376-1.619-1.703a2.43 2.43 0 0 0-1.506-.52c-.852 0-1.666.443-2.442 1.328-.758.866-1.421 2.319-1.989 4.358-.359 1.328-.539 2.473-.539 3.435 0 1.02.189 1.799.568 2.337.397.52.947.78 1.647.78.606 0 1.07-.145 1.392-.433.341-.289.606-.79.795-1.501l.199-.722c.095-.385.142-.644.142-.779 0-.23-.057-.394-.17-.49-.095-.097-.265-.203-.512-.318l-.994-.375c-.435-.173-.653-.49-.653-.953 0-.134.009-.24.028-.317.076-.25.209-.433.398-.548.208-.116.521-.173.937-.173l8.578.028c.625 0 .938.202.938.606 0 .077-.019.193-.057.347-.076.288-.199.52-.369.692-.171.174-.417.347-.739.52l-.738.433c-.19.115-.332.23-.426.346a.79.79 0 0 0-.199.375l-1.506 5.34c-.189.634-.407 1.058-.653 1.27a1.2 1.2 0 0 1-.852.317h-1.193c-.455 0-.833-.096-1.136-.289-.284-.192-.521-.567-.71-1.125l-.284-.837c-1.364 1.616-3.068 2.424-5.113 2.424Z" fill="#CA1010"></path></g><defs><clipPath id="mobile_logo_svg__a"><path fill="#fff" d="M0 0h146v20H0z"></path></clipPath></defs></svg>