<svg xmlns="http://www.w3.org/2000/svg" viewBox="0 0 150 150" xml:space="preserve"><path d="M59.4 60.1h-9v-9h9v9zm-6.8-2.2h4.6v-4.6h-4.6v4.6zM59.4 74.7h-9v-9h9v9zm-6.8-2.2h4.6v-4.6h-4.6v4.6zM59.4 89.3h-9v-9h9v9zm-6.8-2.2h4.6v-4.6h-4.6v4.6zM59.4 103.9h-9v-9h9v9zm-6.8-2.2h4.6v-4.6h-4.6v4.6zM62.5 55h30v2h-30zM62.5 69.6h30v2h-30zM62.5 84.2h30v2h-30zM62.5 98.8h30v2h-30zM94.2 99.9l.1-12.1.1-.3L117.3 48l10.6 6.1-23 39.8-10.7 6zm2.2-11.5v7.7l6.8-3.8 21.6-37.4L118 51 96.4 88.4z"></path><path d="M103 68.3v-25c0-3.3-2.7-6-6-6h-7.4c-.9-2.2-3-3.8-5.6-3.8h-5.4c-.3-3.1-2.9-5.5-6.1-5.5s-5.8 2.4-6.1 5.5H61c-2.5 0-4.7 1.6-5.6 3.8H48c-3.3 0-6 2.7-6 6v64.5c0 3.3 2.7 6 6 6h49c3.3 0 6-2.7 6-6V97.5l-2.2 1.2v9.1c0 2.1-1.7 3.8-3.8 3.8H48c-2.1 0-3.8-1.7-3.8-3.8V43.3c0-2.1 1.7-3.8 3.8-3.8h7V43c0 .6.4 1 1 1h33c.6 0 1-.4 1-1v-3.5h7c2.1 0 3.8 1.7 3.8 3.8v28.8l2.2-3.8zM87.8 41.8H57.2v-2.3c0-.8.3-1.6.7-2.2.7-1 1.8-1.6 3.1-1.6h7.6v-1.6c0-.2 0-.4.1-.6.3-1.9 1.9-3.3 3.8-3.3s3.5 1.4 3.8 3.3c0 .2.1.4.1.6v1.6H84c1.3 0 2.4.6 3.1 1.6.4.6.7 1.4.7 2.2v2.3z"></path></svg>